<svg width="16" height="17" viewBox="0 0 16 17" fill="none" xmlns="http://www.w3.org/2000/svg">
<path d="M15.4305 3.74919V13.4159C15.4305 14.8825 14.1868 16.0825 12.6668 16.0825H7.6232C6.87701 16.0825 6.17229 15.7959 5.65411 15.2892L0.230469 9.96919C0.230469 9.96919 1.10101 9.14919 1.12865 9.13585C1.28065 9.00919 1.4672 8.94252 1.67447 8.94252C1.82647 8.94252 1.96465 8.98252 2.08901 9.04919C2.11665 9.05585 5.06683 10.6892 5.06683 10.6892V2.74919C5.06683 2.19585 5.52974 1.74919 6.1032 1.74919C6.67665 1.74919 7.13956 2.19585 7.13956 2.74919V7.41585H7.83047V1.08252C7.83047 0.529186 8.29338 0.0825195 8.86683 0.0825195C9.44029 0.0825195 9.9032 0.529186 9.9032 1.08252V7.41585H10.5941V1.74919C10.5941 1.19585 11.057 0.749186 11.6305 0.749186C12.2039 0.749186 12.6668 1.19585 12.6668 1.74919V7.41585H13.3577V3.74919C13.3577 3.19585 13.8207 2.74919 14.3941 2.74919C14.9676 2.74919 15.4305 3.19585 15.4305 3.74919Z" fill="#2F80ED"/>
</svg>
