<svg width="16" height="17" viewBox="0 0 16 17" fill="none" xmlns="http://www.w3.org/2000/svg">
<path d="M6.66602 8.9752C7.24532 9.74966 8.13243 10.2343 9.09712 10.3034C10.0618 10.3725 11.0089 10.0192 11.6927 9.3352L13.6927 7.3352C14.9559 6.02727 14.9379 3.94825 13.6521 2.66247C12.3663 1.37669 10.2873 1.35862 8.97935 2.62186L7.83268 3.76186" stroke="#A4A4A4" stroke-width="1.5" stroke-linecap="round" stroke-linejoin="round"/>
<path d="M9.33347 7.6418C8.75416 6.86734 7.86705 6.38267 6.90237 6.31358C5.93769 6.24449 4.99056 6.5978 4.3068 7.2818L2.3068 9.2818C1.04356 10.5897 1.06163 12.6688 2.34741 13.9545C3.63318 15.2403 5.7122 15.2584 7.02013 13.9951L8.16013 12.8551" stroke="#A4A4A4" stroke-width="1.5" stroke-linecap="round" stroke-linejoin="round"/>
</svg>
