<svg width="24" height="24" viewBox="0 0 24 24" fill="none" xmlns="http://www.w3.org/2000/svg">
<path fill-rule="evenodd" clip-rule="evenodd" d="M11.9999 14.864C13.5814 14.864 14.8635 13.5819 14.8635 12.0004C14.8635 10.4188 13.5814 9.13672 11.9999 9.13672C10.4183 9.13672 9.13623 10.4188 9.13623 12.0004C9.13623 13.5819 10.4183 14.864 11.9999 14.864Z" stroke="#666666" stroke-width="1.5" stroke-linecap="round" stroke-linejoin="round"/>
<path fill-rule="evenodd" clip-rule="evenodd" d="M19.0636 14.8636C18.8037 15.4527 18.9284 16.1406 19.3786 16.6009L19.4359 16.6582C19.7944 17.0163 19.9958 17.5022 19.9958 18.0089C19.9958 18.5156 19.7944 19.0015 19.4359 19.3595C19.0778 19.718 18.5919 19.9195 18.0852 19.9195C17.5785 19.9195 17.0926 19.718 16.7345 19.3595L16.6773 19.3023C16.217 18.852 15.529 18.7273 14.94 18.9873C14.363 19.2346 13.988 19.8009 13.9855 20.4286V20.5909C13.9855 21.6453 13.1307 22.5 12.0764 22.5C11.022 22.5 10.1673 21.6453 10.1673 20.5909V20.505C10.1521 19.8585 9.74333 19.2869 9.13636 19.0636C8.54732 18.8037 7.85936 18.9284 7.39909 19.3786L7.34182 19.4359C6.98373 19.7944 6.49783 19.9958 5.99114 19.9958C5.48445 19.9958 4.99854 19.7944 4.64045 19.4359C4.28197 19.0778 4.08054 18.5919 4.08054 18.0852C4.08054 17.5785 4.28197 17.0926 4.64045 16.7345L4.69773 16.6773C5.14795 16.217 5.27269 15.529 5.01273 14.94C4.76543 14.363 4.19911 13.988 3.57136 13.9855H3.40909C2.35473 13.9855 1.5 13.1307 1.5 12.0764C1.5 11.022 2.35473 10.1673 3.40909 10.1673H3.495C4.14154 10.1521 4.71313 9.74333 4.93636 9.13636C5.19633 8.54732 5.07159 7.85936 4.62136 7.39909L4.56409 7.34182C4.20561 6.98373 4.00418 6.49783 4.00418 5.99114C4.00418 5.48445 4.20561 4.99854 4.56409 4.64045C4.92218 4.28197 5.40808 4.08054 5.91477 4.08054C6.42146 4.08054 6.90737 4.28197 7.26545 4.64045L7.32273 4.69773C7.783 5.14795 8.47096 5.27269 9.06 5.01273H9.13636C9.71336 4.76543 10.0884 4.19911 10.0909 3.57136V3.40909C10.0909 2.35473 10.9456 1.5 12 1.5C13.0544 1.5 13.9091 2.35473 13.9091 3.40909V3.495C13.9116 4.12275 14.2866 4.68907 14.8636 4.93636C15.4527 5.19633 16.1406 5.07159 16.6009 4.62136L16.6582 4.56409C17.0163 4.20561 17.5022 4.00418 18.0089 4.00418C18.5156 4.00418 19.0015 4.20561 19.3595 4.56409C19.718 4.92218 19.9195 5.40808 19.9195 5.91477C19.9195 6.42146 19.718 6.90737 19.3595 7.26545L19.3023 7.32273C18.852 7.783 18.7273 8.47096 18.9873 9.06V9.13636C19.2346 9.71336 19.8009 10.0884 20.4286 10.0909H20.5909C21.6453 10.0909 22.5 10.9456 22.5 12C22.5 13.0544 21.6453 13.9091 20.5909 13.9091H20.505C19.8772 13.9116 19.3109 14.2866 19.0636 14.8636Z" stroke="#666666" stroke-width="1.5" stroke-linecap="round" stroke-linejoin="round"/>
</svg>
