<svg width="34" height="34" viewBox="0 0 34 34" fill="none" xmlns="http://www.w3.org/2000/svg">
<path d="M12.7497 29.75C12.7497 30.5291 13.3872 31.1666 14.1663 31.1666H19.833C20.6122 31.1666 21.2497 30.5291 21.2497 29.75V28.3333H12.7497V29.75ZM16.9997 2.83331C11.5313 2.83331 7.08301 7.28165 7.08301 12.75C7.08301 16.1216 8.76884 19.0825 11.333 20.8816V24.0833C11.333 24.8625 11.9705 25.5 12.7497 25.5H21.2497C22.0288 25.5 22.6663 24.8625 22.6663 24.0833V20.8816C25.2305 19.0825 26.9163 16.1216 26.9163 12.75C26.9163 7.28165 22.468 2.83331 16.9997 2.83331ZM21.0372 18.5583L19.833 19.4083V22.6666H14.1663V19.4083L12.9622 18.5583C11.0497 17.2266 9.91634 15.0591 9.91634 12.75C9.91634 8.83998 13.0897 5.66665 16.9997 5.66665C20.9097 5.66665 24.083 8.83998 24.083 12.75C24.083 15.0591 22.9497 17.2266 21.0372 18.5583Z" fill="#2F80ED"/>
</svg>
