<svg width="13" height="15" viewBox="0 0 13 15" fill="none" xmlns="http://www.w3.org/2000/svg">
<path d="M10.3921 10.3677C9.86553 10.3677 9.39442 10.5805 9.03417 10.914L4.09447 7.96956C4.12911 7.80638 4.15682 7.64319 4.15682 7.47291C4.15682 7.30263 4.12911 7.13945 4.09447 6.97626L8.97874 4.06023C9.35286 4.41497 9.84475 4.63492 10.3921 4.63492C11.5421 4.63492 12.4705 3.68419 12.4705 2.50642C12.4705 1.32866 11.5421 0.37793 10.3921 0.37793C9.24201 0.37793 8.31365 1.32866 8.31365 2.50642C8.31365 2.6767 8.34136 2.83989 8.376 3.00307L3.49173 5.91911C3.11762 5.56436 2.62573 5.34442 2.07841 5.34442C0.928358 5.34442 0 6.29514 0 7.47291C0 8.65068 0.928358 9.60141 2.07841 9.60141C2.62573 9.60141 3.11762 9.38146 3.49173 9.02671L8.4245 11.9782C8.38986 12.1272 8.36907 12.2833 8.36907 12.4394C8.36907 13.5817 9.27665 14.5111 10.3921 14.5111C11.5075 14.5111 12.415 13.5817 12.415 12.4394C12.415 11.2971 11.5075 10.3677 10.3921 10.3677Z" fill="#2F80ED"/>
</svg>
