<svg width="5" height="15" viewBox="0 0 5 15" fill="none" xmlns="http://www.w3.org/2000/svg">
<path d="M2.05857 11.2523C0.958689 11.2374 0.0456546 12.0623 0.029606 13.0854C0.0135574 14.1086 0.900331 14.9579 2.00021 14.9729C3.1001 14.9878 4.01313 14.1629 4.02918 13.1397C4.04523 12.1166 3.15845 11.2673 2.05857 11.2523ZM2.08775 9.39206C3.18763 9.40698 4.10067 8.58208 4.11672 7.55893C4.13277 6.53578 3.24599 5.68645 2.14611 5.67152C1.04623 5.65659 0.133192 6.4815 0.117144 7.50464C0.101095 8.52779 0.987868 9.37713 2.08775 9.39206ZM2.17529 3.81125C3.27517 3.82618 4.18821 3.00128 4.20425 1.97813C4.2203 0.954984 3.33353 0.105649 2.23365 0.0907202C1.13376 0.0757913 0.22073 0.900697 0.204681 1.92384C0.188633 2.94699 1.07541 3.79633 2.17529 3.81125Z" fill="#828282"/>
</svg>
