<svg width="16" height="22" viewBox="0 0 16 22" fill="none" xmlns="http://www.w3.org/2000/svg">
<path d="M15.13 3.71L12.33 0.89C12.0513 0.608344 11.7196 0.38468 11.354 0.231923C10.9884 0.0791657 10.5962 0.000340972 10.2 0H3C2.20435 0 1.44129 0.31607 0.87868 0.87868C0.316071 1.44129 0 2.20435 0 3V19C0 19.7956 0.316071 20.5587 0.87868 21.1213C1.44129 21.6839 2.20435 22 3 22H13C13.7956 22 14.5587 21.6839 15.1213 21.1213C15.6839 20.5587 16 19.7956 16 19V5.82C15.9993 5.02951 15.6867 4.27125 15.13 3.71ZM13.59 5H12C11.7348 5 11.4804 4.89464 11.2929 4.70711C11.1054 4.51957 11 4.26522 11 4V2.39L13.59 5ZM13 20H3C2.73478 20 2.48043 19.8946 2.29289 19.7071C2.10536 19.5196 2 19.2652 2 19V3C2 2.73478 2.10536 2.48043 2.29289 2.29289C2.48043 2.10536 2.73478 2 3 2H9V4C9 4.79565 9.31607 5.55871 9.87868 6.12132C10.4413 6.68393 11.2044 7 12 7H14V19C14 19.2652 13.8946 19.5196 13.7071 19.7071C13.5196 19.8946 13.2652 20 13 20Z" fill="#333333"/>
<line x1="4" y1="11" x2="12" y2="11" stroke="#333333" stroke-width="2"/>
<line x1="4" y1="16" x2="12" y2="16" stroke="#333333" stroke-width="2"/>
</svg>
