<svg width="12" height="12" viewBox="0 0 12 12" fill="none" xmlns="http://www.w3.org/2000/svg">
<path d="M7.06059 6.41774L11.3315 2.14684C11.3988 2.07958 11.3988 1.97869 11.3315 1.91143L10.3899 0.969815C10.3226 0.902557 10.2217 0.902557 10.1545 0.969815L5.88356 5.24072L1.61266 0.936186C1.5454 0.868928 1.44451 0.868928 1.37725 0.936186L0.435636 1.8778C0.368377 1.94506 0.368377 2.04595 0.435636 2.11321L4.70654 6.41774L0.402006 10.6887C0.334748 10.7559 0.334748 10.8568 0.402006 10.9241L1.34362 11.8657C1.41088 11.9329 1.51177 11.9329 1.57903 11.8657L5.88356 7.59477L10.1545 11.8657C10.2217 11.9329 10.3226 11.9329 10.3899 11.8657L11.3315 10.9241C11.3988 10.8568 11.3988 10.7559 11.3315 10.6887L7.06059 6.41774Z" fill="white"/>
</svg>
