<svg width="25" height="25" viewBox="0 0 25 25" fill="none" xmlns="http://www.w3.org/2000/svg">
<path d="M11 21.51C11 21.51 9.5 21.51 9.5 20.01C9.5 18.51 11 14.01 17 14.01C23 14.01 24.5 18.51 24.5 20.01C24.5 21.51 23 21.51 23 21.51H11ZM17 12.51C18.1935 12.51 19.3381 12.0359 20.182 11.192C21.0259 10.3481 21.5 9.20347 21.5 8.01C21.5 6.81652 21.0259 5.67193 20.182 4.82802C19.3381 3.9841 18.1935 3.51 17 3.51C15.8065 3.51 14.6619 3.9841 13.818 4.82802C12.9741 5.67193 12.5 6.81652 12.5 8.01C12.5 9.20347 12.9741 10.3481 13.818 11.192C14.6619 12.0359 15.8065 12.51 17 12.51Z" fill="white"/>
<path fill-rule="evenodd" clip-rule="evenodd" d="M8.324 21.5099C8.10163 21.0416 7.99073 20.5282 8 20.0099C8 17.9774 9.02 15.8849 10.904 14.4299C9.96364 14.1402 8.98392 13.9985 8 14.0099C2 14.0099 0.5 18.5099 0.5 20.0099C0.5 21.5099 2 21.5099 2 21.5099H8.324Z" fill="white"/>
<path d="M7.25 12.51C8.24456 12.51 9.19839 12.1149 9.90165 11.4116C10.6049 10.7084 11 9.75456 11 8.76C11 7.76544 10.6049 6.81161 9.90165 6.10835C9.19839 5.40509 8.24456 5.01 7.25 5.01C6.25544 5.01 5.30161 5.40509 4.59835 6.10835C3.89509 6.81161 3.5 7.76544 3.5 8.76C3.5 9.75456 3.89509 10.7084 4.59835 11.4116C5.30161 12.1149 6.25544 12.51 7.25 12.51Z" fill="white"/>
</svg>
