<svg width="26" height="24" viewBox="0 0 26 24" fill="none" xmlns="http://www.w3.org/2000/svg">
<path d="M12.6888 0.000238649C0.513867 -0.0638328 -5.13132 12.7899 5.94088 18.5C5.74618 19.1709 4.69066 22.8166 4.64841 23.103C4.61831 23.3269 4.78898 23.5147 5.0657 23.4186C5.4656 23.3626 9.69983 20.3882 10.4328 19.8718C27.9897 21.9732 31.4468 0.806655 12.6888 0.000238649Z" fill="#3D1D1C"/>
<path d="M7.05145 12.5399C7.03022 13.3627 5.76388 13.3659 5.74142 12.5399V8.64884H4.71947C3.87302 8.62736 3.87129 7.38818 4.71947 7.36621H8.0734C8.92034 7.38867 8.92133 8.62638 8.0734 8.64884H7.05145V12.5399ZM12.5562 13.0664C12.2622 13.2215 11.6934 13.1837 11.5947 12.8675L11.2703 12.0183H9.27309L8.94848 12.868C8.85024 13.1837 8.28125 13.2217 7.9875 13.0664C7.80681 12.9833 7.63327 12.7542 7.83223 12.1363L9.39898 8.01271C9.71964 7.167 10.8223 7.1633 11.1449 8.01345L12.711 12.1353C12.9102 12.7544 12.7366 12.9835 12.5562 13.0664ZM15.8664 13.0699H13.765C13.4189 13.0699 13.1373 12.8006 13.1373 12.4696V8.0211C13.1597 7.1591 14.4515 7.15639 14.4744 8.0211V11.869H15.8664C16.6931 11.8895 16.6949 13.0489 15.8664 13.0699ZM20.9937 12.5767C20.9355 13.1383 20.1463 13.3451 19.8224 12.8806L18.2865 10.8453L18.0592 11.0726V12.5017C18.0377 13.3637 16.7716 13.3669 16.7489 12.5019V8.0211C16.7716 7.15836 18.0357 7.15664 18.0589 8.0211V9.42888L19.8864 7.60146C20.1056 7.37905 20.4867 7.42694 20.7005 7.6491C20.9229 7.8604 20.971 8.24598 20.7486 8.46321L19.2559 9.95566L20.8681 12.0916C20.973 12.2299 21.0182 12.4046 20.9937 12.5767Z" fill="#FFE812"/>
<path d="M9.61719 10.8585H10.9255L10.2713 9L9.61719 10.8585Z" fill="#3D1D1C"/>
</svg>
