<svg width="21" height="22" viewBox="0 0 21 22" fill="none" xmlns="http://www.w3.org/2000/svg">
<path d="M20.8238 10.8605C20.8363 10.1301 20.7609 9.40084 20.5992 8.68848H10.6245V12.6312H16.4796C16.3686 13.3225 16.1191 13.9842 15.7458 14.5766C15.3725 15.1689 14.8833 15.6797 14.3076 16.0781L14.2872 16.2101L17.4411 18.6534L17.6596 18.6752C19.6662 16.8219 20.8233 14.0949 20.8233 10.8605" fill="#4285F4"/>
<path d="M10.6243 21.2496C13.4927 21.2496 15.9008 20.3052 17.6599 18.6761L14.3073 16.079C13.4102 16.7048 12.2062 17.1416 10.6243 17.1416C9.28077 17.1337 7.97387 16.703 6.88897 15.9105C5.80408 15.118 4.99629 14.004 4.5802 12.7266L4.45569 12.7372L1.17617 15.2751L1.1333 15.3944C2.01656 17.1547 3.37206 18.6346 5.04824 19.6686C6.72442 20.7027 8.6552 21.2501 10.6247 21.2496" fill="#34A853"/>
<path d="M4.58011 12.7257C4.34773 12.0494 4.22782 11.3396 4.22515 10.6245C4.22943 9.91059 4.34492 9.2017 4.56745 8.52335L4.56153 8.38251L1.2418 5.80371L1.13321 5.85535C0.38811 7.33469 0 8.96802 0 10.6244C0 12.2808 0.38811 13.9141 1.13321 15.3935L4.58011 12.7257Z" fill="#FBBC05"/>
<path d="M10.6237 4.10877C12.1461 4.08513 13.6184 4.65209 14.7317 5.69066L17.7302 2.76303C15.8071 0.95892 13.2604 -0.0309728 10.6237 0.00073906C8.65424 0.000270479 6.72348 0.547641 5.0473 1.58164C3.37112 2.61565 2.01561 4.09552 1.13232 5.85579L4.56779 8.52378C4.98797 7.24654 5.79845 6.1334 6.88494 5.3413C7.97144 4.5492 9.27914 4.11809 10.6237 4.10877Z" fill="#EB4335"/>
</svg>
