<svg width="12" height="17" viewBox="0 0 12 17" fill="none" xmlns="http://www.w3.org/2000/svg">
<path d="M10.591 3.00665L8.631 0.955744C8.43593 0.750904 8.20373 0.588239 7.94782 0.477143C7.69191 0.366047 7.41735 0.30872 7.14 0.308472H2.1C1.54305 0.308472 1.0089 0.538341 0.615076 0.947511C0.221249 1.35668 0 1.91164 0 2.49029V14.1267C0 14.7053 0.221249 15.2603 0.615076 15.6694C1.0089 16.0786 1.54305 16.3085 2.1 16.3085H9.1C9.65695 16.3085 10.1911 16.0786 10.5849 15.6694C10.9788 15.2603 11.2 14.7053 11.2 14.1267V4.5412C11.1995 3.9663 10.9807 3.41483 10.591 3.00665ZM9.513 3.94484H8.4C8.21435 3.94484 8.0363 3.86821 7.90503 3.73182C7.77375 3.59543 7.7 3.41045 7.7 3.21756V2.04665L9.513 3.94484ZM9.1 14.8539H2.1C1.91435 14.8539 1.7363 14.7773 1.60503 14.6409C1.47375 14.5045 1.4 14.3195 1.4 14.1267V2.49029C1.4 2.29741 1.47375 2.11242 1.60503 1.97603C1.7363 1.83964 1.91435 1.76302 2.1 1.76302H6.3V3.21756C6.3 3.79622 6.52125 4.35117 6.91508 4.76034C7.3089 5.16951 7.84305 5.39938 8.4 5.39938H9.8V14.1267C9.8 14.3195 9.72625 14.5045 9.59498 14.6409C9.4637 14.7773 9.28565 14.8539 9.1 14.8539Z" fill="#A4A4A4"/>
<path fill-rule="evenodd" clip-rule="evenodd" d="M8.80039 8.3085H2.40039V6.7085H8.80039V8.3085Z" fill="#A4A4A4"/>
<path fill-rule="evenodd" clip-rule="evenodd" d="M8.80039 12.3085H2.40039V10.7085H8.80039V12.3085Z" fill="#A4A4A4"/>
</svg>
