<svg width="25" height="25" viewBox="0 0 25 25" fill="none" xmlns="http://www.w3.org/2000/svg">
<path d="M21.5 6.3125V19C21.5 20.925 19.9455 22.5 18.0455 22.5H11.7409C10.8082 22.5 9.92727 22.1237 9.27955 21.4587L2.5 14.4762C2.5 14.4762 3.58818 13.4 3.62273 13.3825C3.81273 13.2162 4.04591 13.1287 4.305 13.1287C4.495 13.1287 4.66773 13.1812 4.82318 13.2688C4.85773 13.2775 8.54545 15.4212 8.54545 15.4212V5C8.54545 4.27375 9.12409 3.6875 9.84091 3.6875C10.5577 3.6875 11.1364 4.27375 11.1364 5V11.125H12V2.8125C12 2.08625 12.5786 1.5 13.2955 1.5C14.0123 1.5 14.5909 2.08625 14.5909 2.8125V11.125H15.4545V3.6875C15.4545 2.96125 16.0332 2.375 16.75 2.375C17.4668 2.375 18.0455 2.96125 18.0455 3.6875V11.125H18.9091V6.3125C18.9091 5.58625 19.4877 5 20.2045 5C20.9214 5 21.5 5.58625 21.5 6.3125Z" fill="white"/>
</svg>
