<svg width="80" height="12" viewBox="0 0 80 12" fill="none" xmlns="http://www.w3.org/2000/svg">
<path d="M0 11.2678H2.2281V4.04242L5.22013 11.2678H6.90712L9.88323 4.04242V11.2678H12.1113V0.15915H9.59676L6.06363 8.41905L2.53049 0.15915H0V11.2678Z" fill="#BDBDBD"/>
<path d="M24.834 5.68166C24.834 2.35542 22.3195 0 19.1524 0C16.0171 0 13.4548 2.35542 13.4548 5.68166C13.4548 9.02382 16.0171 11.3792 19.1524 11.3792C22.3035 11.3792 24.834 9.02382 24.834 5.68166ZM15.7466 5.68166C15.7466 3.42173 17.1312 2.00529 19.1524 2.00529C21.1577 2.00529 22.5423 3.42173 22.5423 5.68166C22.5423 7.9416 21.1577 9.38987 19.1524 9.38987C17.1312 9.38987 15.7466 7.9416 15.7466 5.68166Z" fill="#BDBDBD"/>
<path d="M37.0115 5.68166C37.0115 2.35542 34.4969 0 31.3299 0C28.1946 0 25.6323 2.35542 25.6323 5.68166C25.6323 9.02382 28.1946 11.3792 31.3299 11.3792C34.481 11.3792 37.0115 9.02382 37.0115 5.68166ZM27.924 5.68166C27.924 3.42173 29.3086 2.00529 31.3299 2.00529C33.3351 2.00529 34.7198 3.42173 34.7198 5.68166C34.7198 7.9416 33.3351 9.38987 31.3299 9.38987C29.3086 9.38987 27.924 7.9416 27.924 5.68166Z" fill="#BDBDBD"/>
<path d="M45.624 0.143235V7.78245L40.579 0.143235H38.3509V11.2678H40.579V3.64454L45.624 11.2678H47.8521V0.143235H45.624Z" fill="#BDBDBD"/>
<path d="M53.619 0.15915H49.7357V11.2678H53.619C57.168 11.2678 59.4757 9.08748 59.4757 5.72941C59.4757 2.35542 57.168 0.15915 53.619 0.15915ZM51.9638 9.37395V2.03712H53.5394C55.8789 2.03712 57.1999 3.42173 57.1999 5.72941C57.1999 8.03709 55.8789 9.37395 53.5394 9.37395H51.9638Z" fill="#BDBDBD"/>
<path d="M68.369 11.2678H70.7244L66.7297 0.143235H64.1356L60.1409 11.2678H62.4804L63.2125 9.15114H67.6369L68.369 11.2678ZM67.0321 7.36866H63.8173L65.4247 2.72147L67.0321 7.36866Z" fill="#BDBDBD"/>
<path d="M74.1274 5.20421V1.97346H75.8939C77.1512 1.97346 77.7082 2.57824 77.7082 3.5968C77.7082 4.58353 77.1512 5.20421 75.8939 5.20421H74.1274ZM80 3.5968C80 1.67108 78.6631 0.15915 75.9894 0.15915H71.8993V11.2678H74.1274V7.00261H75.9894C78.8541 7.00261 80 5.28379 80 3.5968Z" fill="#BDBDBD"/>
</svg>
