<svg width="142" height="21" viewBox="0 0 142 21" fill="none" xmlns="http://www.w3.org/2000/svg">
<path d="M0.932129 20H4.85213V7.28803L10.1161 20H13.0841L18.3201 7.28803V20H22.2401V0.456025H17.8161L11.6001 14.988L5.38413 0.456025H0.932129V20Z" fill="#323F4B"/>
<path d="M44.6237 10.172C44.6237 4.32002 40.1997 0.176025 34.6277 0.176025C29.1117 0.176025 24.6037 4.32002 24.6037 10.172C24.6037 16.052 29.1117 20.196 34.6277 20.196C40.1717 20.196 44.6237 16.052 44.6237 10.172ZM28.6357 10.172C28.6357 6.19602 31.0717 3.70403 34.6277 3.70403C38.1557 3.70403 40.5917 6.19602 40.5917 10.172C40.5917 14.148 38.1557 16.696 34.6277 16.696C31.0717 16.696 28.6357 14.148 28.6357 10.172Z" fill="#323F4B"/>
<path d="M66.0481 10.172C66.0481 4.32002 61.6241 0.176025 56.0521 0.176025C50.5361 0.176025 46.0281 4.32002 46.0281 10.172C46.0281 16.052 50.5361 20.196 56.0521 20.196C61.5961 20.196 66.0481 16.052 66.0481 10.172ZM50.0601 10.172C50.0601 6.19602 52.4961 3.70403 56.0521 3.70403C59.5801 3.70403 62.0161 6.19602 62.0161 10.172C62.0161 14.148 59.5801 16.696 56.0521 16.696C52.4961 16.696 50.0601 14.148 50.0601 10.172Z" fill="#323F4B"/>
<path d="M81.2005 0.428024V13.868L72.3245 0.428024H68.4045V20H72.3245V6.58803L81.2005 20H85.1205V0.428024H81.2005Z" fill="#323F4B"/>
<path d="M95.2663 0.456025H88.4343V20H95.2663C101.51 20 105.57 16.164 105.57 10.256C105.57 4.32002 101.51 0.456025 95.2663 0.456025ZM92.3543 16.668V3.76002H95.1263C99.2423 3.76002 101.566 6.19602 101.566 10.256C101.566 14.316 99.2423 16.668 95.1263 16.668H92.3543Z" fill="#323F4B"/>
<path d="M121.217 20H125.361L118.333 0.428024H113.769L106.741 20H110.857L112.145 16.276H119.929L121.217 20ZM118.865 13.14H113.209L116.037 4.96403L118.865 13.14Z" fill="#323F4B"/>
<path d="M131.348 9.33202V3.64802H134.456C136.668 3.64802 137.648 4.71203 137.648 6.50403C137.648 8.24003 136.668 9.33202 134.456 9.33202H131.348ZM141.68 6.50403C141.68 3.11602 139.328 0.456025 134.624 0.456025H127.428V20H131.348V12.496H134.624C139.664 12.496 141.68 9.47203 141.68 6.50403Z" fill="#323F4B"/>
</svg>
